<svg width="569" height="218" viewBox="0 0 569 218" fill="none" xmlns="http://www.w3.org/2000/svg">
<path d="M504.387 86.7481C501.214 86.7481 498.177 84.9353 496.772 81.8649C494.846 77.6624 496.693 72.7003 500.899 70.7764C510.439 66.4127 516.122 55.1522 519.213 46.4713C522.874 36.189 523.867 26.8954 523.878 26.8023C524.355 22.2128 528.456 18.8666 533.056 19.3359C537.653 19.8052 540.998 23.8967 540.536 28.4897C540.489 28.9376 539.381 39.5818 535.122 51.7021C529.059 68.9528 519.891 80.4856 507.872 85.985C506.743 86.5009 505.56 86.7481 504.391 86.7481H504.387Z" fill="url(#paint0_linear_5_850)"/>
<path d="M560.019 86.7483C558.854 86.7483 557.671 86.5046 556.541 85.9852C544.691 80.5645 535.269 68.7093 529.288 51.7022C525.025 39.5783 523.917 28.9341 523.874 28.4899C523.412 23.8933 526.764 19.7911 531.364 19.3289C535.961 18.8631 540.062 22.213 540.532 26.8024C540.546 26.9386 541.543 36.2142 545.197 46.4715C548.287 55.1488 553.97 66.4092 563.511 70.7766C567.717 72.7005 569.563 77.6625 567.638 81.865C566.229 84.9354 563.196 86.7483 560.023 86.7483H560.019Z" fill="url(#paint1_linear_5_850)"/>
<path d="M504.38 86.7447C499.755 86.7447 496.008 83.0007 496.008 78.379V51.2902C496.008 46.6685 499.755 42.9246 504.38 42.9246C509.006 42.9246 512.752 46.6685 512.752 51.2902V78.379C512.752 83.0007 509.006 86.7447 504.38 86.7447Z" fill="url(#paint2_linear_5_850)"/>
<path style="mix-blend-mode:screen" d="M532.203 36.0994C536.872 36.0994 540.657 32.3171 540.657 27.6514C540.657 22.9857 536.872 19.2034 532.203 19.2034C527.534 19.2034 523.749 22.9857 523.749 27.6514C523.749 32.3171 527.534 36.0994 532.203 36.0994Z" fill="url(#paint3_linear_5_850)"/>
<path style="mix-blend-mode:screen" d="M560.022 86.8272C564.692 86.8272 568.477 83.0449 568.477 78.3792C568.477 73.7135 564.692 69.9312 560.022 69.9312C555.353 69.9312 551.568 73.7135 551.568 78.3792C551.568 83.0449 555.353 86.8272 560.022 86.8272Z" fill="url(#paint4_linear_5_850)"/>
<path d="M504.38 36.0994C509.05 36.0994 512.835 32.3171 512.835 27.6514C512.835 22.9857 509.05 19.2034 504.38 19.2034C499.711 19.2034 495.926 22.9857 495.926 27.6514C495.926 32.3171 499.711 36.0994 504.38 36.0994Z" fill="url(#paint5_linear_5_850)"/>
<path d="M136.471 159.936H39.8437C36.5308 159.936 33.5656 161.978 32.3824 165.07L15.4556 209.341C14.2724 212.433 11.3072 214.475 7.99429 214.475C2.3759 214.475 -1.48562 208.836 0.550915 203.605L77.7454 5.09103C78.9394 2.02065 81.8974 0 85.1924 0H91.4239C94.7225 0 97.6841 2.02423 98.8744 5.09819L175.786 203.609C177.811 208.84 173.95 214.472 168.339 214.472H168.324C165.011 214.472 162.046 212.429 160.863 209.338L143.936 165.066C142.753 161.974 139.788 159.932 136.475 159.932L136.471 159.936ZM131.986 133.778L95.7658 39.356C93.1449 32.5238 83.4714 32.5238 80.8504 39.356L44.6303 133.778C42.626 139.005 46.4876 144.616 52.088 144.616H124.525C130.125 144.616 133.987 139.005 131.982 133.778H131.986Z" fill="white"/>
<path d="M234.881 76.2902V175.868C234.881 200.56 246.968 203.154 273.023 201.298C277.1 201.008 280.567 204.236 280.567 208.32C280.567 211.903 277.874 214.905 274.314 215.317C238.205 219.487 219.241 208.94 219.241 175.872V76.2902H193.025C188.876 76.2902 185.513 72.9297 185.513 68.7845C185.513 64.6393 188.876 61.2787 193.025 61.2787H219.241V30.9618C219.241 26.2291 222.361 22.0624 226.904 20.7296L232.687 19.0314C233.784 18.709 234.881 19.5294 234.881 20.6723V61.2823H273.055C277.204 61.2823 280.567 64.6429 280.567 68.7881C280.567 72.9332 277.204 76.2938 273.055 76.2938H234.881V76.2902Z" fill="white"/>
<path d="M458.717 69.0927V206.661C458.717 210.975 455.217 214.475 450.897 214.475C446.58 214.475 443.077 210.979 443.077 206.661V180.579C443.077 180.382 442.815 180.314 442.718 180.486C429.764 203.107 406.319 217.847 377.151 217.847C333.61 217.847 297.734 183.223 297.734 137.877C297.734 92.5308 333.61 57.9075 377.151 57.9075C406.315 57.9075 429.761 72.6467 442.718 95.2679C442.815 95.4399 443.077 95.3718 443.077 95.1748V69.0927C443.077 64.7791 446.576 61.2788 450.897 61.2788C455.214 61.2788 458.717 64.7755 458.717 69.0927ZM443.009 134.764C441.603 103.153 418.893 77.9133 388.367 73.3525C342.025 66.4307 308.261 99.6102 313.865 146.096C317.583 176.947 342.043 200.657 373.365 202.957C412.238 205.809 444.737 173.675 443.005 134.764H443.009Z" fill="white"/>
<defs>
<linearGradient id="paint0_linear_5_850" x1="493.437" y1="79.2746" x2="544.53" y2="28.1427" gradientUnits="userSpaceOnUse">
<stop stop-color="#FF23A4"/>
<stop offset="1" stop-color="#1D30FF"/>
</linearGradient>
<linearGradient id="paint1_linear_5_850" x1="570.99" y1="79.2532" x2="519.894" y2="28.1213" gradientUnits="userSpaceOnUse">
<stop stop-color="#1D30FF"/>
<stop offset="1" stop-color="#FF23A4"/>
</linearGradient>
<linearGradient id="paint2_linear_5_850" x1="491.684" y1="77.5228" x2="517.057" y2="52.1271" gradientUnits="userSpaceOnUse">
<stop stop-color="#1D30FF"/>
<stop offset="1" stop-color="#FF23A4"/>
</linearGradient>
<linearGradient id="paint3_linear_5_850" x1="526.222" y1="33.6273" x2="538.171" y2="21.6699" gradientUnits="userSpaceOnUse">
<stop stop-color="#1D30FF"/>
<stop offset="1" stop-color="#FF23A4"/>
</linearGradient>
<linearGradient id="paint4_linear_5_850" x1="554.045" y1="84.3551" x2="565.994" y2="72.3977" gradientUnits="userSpaceOnUse">
<stop stop-color="#1D30FF"/>
<stop offset="1" stop-color="#FF23A4"/>
</linearGradient>
<linearGradient id="paint5_linear_5_850" x1="498.403" y1="33.6273" x2="510.352" y2="21.6699" gradientUnits="userSpaceOnUse">
<stop stop-color="#1D30FF"/>
<stop offset="1" stop-color="#FF23A4"/>
</linearGradient>
</defs>
</svg>
